<?xml version="1.0" standalone="no"?><!DOCTYPE svg PUBLIC "-//W3C//DTD SVG 1.1//EN" "http://www.w3.org/Graphics/SVG/1.1/DTD/svg11.dtd"><svg t="1494212144267" class="icon" style="" viewBox="0 0 1024 1024" version="1.1" xmlns="http://www.w3.org/2000/svg" p-id="2395" xmlns:xlink="http://www.w3.org/1999/xlink" width="200" height="200"><defs><style type="text/css"></style></defs><path d="M162.29376 184.235008l558.751744 0 0 28.606464-558.751744 0 0-28.606464Z" p-id="2396" fill="#1296db"></path><path d="M711.640064 226.817024 171.226112 226.817024c-22.016 66.63168-43.075584 133.592064-65.091584 200.559616L776.88832 427.37664C755.193856 361.065472 711.640064 226.817024 711.640064 226.817024zM220.368896 413.073408l-28.076032 0c14.355456-57.212928 28.076032-114.747392 42.118144-171.953152l28.0832 0C248.452096 298.653696 234.094592 355.861504 220.368896 413.073408zM331.736064 413.073408l-27.439104 0c8.615936-57.534464 17.227776-114.747392 25.84576-171.953152l27.761664 0C349.287424 298.32704 340.354048 355.861504 331.736064 413.073408zM455.868416 413.073408l-28.077056 0c-0.320512-57.534464 0-114.747392-0.320512-171.953152l28.397568 0L455.868416 413.073408zM553.517056 413.073408c-8.617984-57.534464-17.229824-114.747392-25.847808-171.953152l27.761664 0c8.617984 57.20576 17.235968 114.741248 25.847808 171.953152L553.517056 413.073408zM665.521152 412.745728c-14.35648-56.884224-27.761664-114.418688-42.118144-171.625472 9.253888 0 18.506752 0 27.761664-0.326656 14.35648 57.212928 28.0832 114.745344 42.118144 171.951104L665.521152 412.744704z" p-id="2397" fill="#1296db"></path><path d="M620.791808 739.377152l51.062784 0 0-57.652224c0-8.236032 0.27136-14.541824 0.82432-18.942976-1.646592 3.848192-4.117504 8.236032-7.412736 13.177856L620.791808 739.377152z" p-id="2398" fill="#1296db"></path><path d="M928.16896 663.830528c-10.848256-45.835264-38.294528-87.442432-75.947008-114.746368-40.208384-29.901824-91.902976-42.25536-140.724224-35.106816-74.673152 9.42592-139.764736 67.61472-159.873024 141.402112-14.67904 52.657152-7.339008 111.812608 21.380096 158.623744 26.804224 44.534784 71.158784 77.362176 120.943616 89.060352 38.929408 9.105408 80.412672 6.506496 117.428224-8.772608 46.590976-18.85184 85.521408-56.884224 105.622528-103.69024C934.23616 750.946304 937.74336 705.759232 928.16896 663.830528zM729.506816 768.202752l-22.237184 0 0 37.885952-35.41504 0 0-37.885952-88.947712 0 0-25.532416 85.653504-118.597632 38.709248 0 0 115.304448 22.237184 0L729.506816 768.202752zM823.396352 809.382912c-46.674944 0.539648-74.124288-19.766272-82.36032-60.946432l40.356864-7.412736c3.294208 24.708096 17.011712 37.061632 41.18016 37.061632 18.118656-0.539648 27.718656-7.682048 28.8256-21.412864 0-10.42432-6.319104-18.11968-18.942976-23.061504-13.177856-4.38784-25.261056-7.953408-36.238336-10.706944-33.498112-7.129088-49.69984-24.425472-48.592896-51.887104 3.295232-30.742528 25.532416-47.214592 66.711552-49.416192 42.826752-0.539648 68.074496 16.472064 75.77088 51.063808l-40.356864 8.236032c-2.752512-18.11968-14.001152-27.179008-33.767424-27.179008-15.932416 0.55296-24.43776 6.31808-25.532416 17.29536-1.10592 10.436608 9.6 18.11968 32.120832 23.061504 15.91808 3.295232 30.189568 8.236032 42.826752 14.825472 19.213312 9.882624 29.095936 25.261056 29.648896 46.12096C893.402112 790.157312 869.518336 808.275968 823.396352 809.382912z" p-id="2399" fill="#1296db"></path><path d="M400.029696 770.024448 400.029696 525.805568c22.46656-8.429568 38.913024-35.487744 38.913024-67.58912l5.137408 0c0 38.84032 24.067072 70.326272 53.755904 70.326272s53.75488-31.485952 53.75488-70.326272l5.137408 0c0 38.84032 24.067072 70.326272 53.75488 70.326272 29.688832 0 53.755904-31.485952 53.755904-70.326272l5.137408 0c0 17.318912 4.794368 33.164288 12.729344 45.41952 17.473536-4.678656 35.833856-7.187456 54.782976-7.187456 9.218048 0 18.292736 0.607232 27.198464 1.754112 1.01888 0.119808 2.036736 0.243712 3.05152 0.377856 6.135808-11.426816 9.749504-25.33888 9.749504-40.364032L776.88832 439.61344 106.134528 439.61344l0 18.603008c0 38.84032 24.067072 70.326272 53.755904 70.326272 29.688832 0 53.755904-31.485952 53.755904-70.326272l5.137408 0c0 38.84032 24.067072 70.326272 53.755904 70.326272s53.755904-31.485952 53.755904-70.326272l5.137408 0c0 32.710656 17.072128 60.201984 40.194048 68.06528l0 243.74272L204.097536 770.024448 204.097536 542.11584l-0.185344 0-40.96 0-0.336896 0 0 227.907584-39.61344 0c-17.05472 0-30.880768 13.128704-30.880768 29.324288 0 16.195584 13.826048 29.324288 30.880768 29.324288l438.281216 0c-11.928576-17.835008-21.236736-37.567488-27.384832-58.6496L400.029696 770.0224z" p-id="2400" fill="#1296db"></path><path d="M290.51392 706.907136c0 14.138368 11.461632 25.6 25.6 25.6s25.6-11.461632 25.6-25.6c0-9.26208-4.919296-17.375232-12.288-21.869568l0-81.472512c7.368704-4.494336 12.288-12.607488 12.288-21.869568 0-14.138368-11.461632-25.6-25.6-25.6s-25.6 11.461632-25.6 25.6c0 9.26208 4.919296 17.375232 12.288 21.869568l0 81.472512C295.43424 689.531904 290.51392 697.645056 290.51392 706.907136z" p-id="2401" fill="#1296db"></path><path d="M449.850822 623.704728l105.691832-105.691832 10.136986 10.136986-105.691832 105.691832-10.136986-10.136986Z" p-id="2402" fill="#1296db"></path><path d="M459.994112 720.068608l75.742208-75.742208c3.994624-12.332032 9.071616-24.17664 15.136768-35.410944l-101.016576 101.016576L459.994112 720.068608z" p-id="2403" fill="#1296db"></path></svg>