<?xml version="1.0" standalone="no"?><!DOCTYPE svg PUBLIC "-//W3C//DTD SVG 1.1//EN" "http://www.w3.org/Graphics/SVG/1.1/DTD/svg11.dtd"><svg t="1494212594642" class="icon" style="" viewBox="0 0 1024 1024" version="1.1" xmlns="http://www.w3.org/2000/svg" p-id="4318" xmlns:xlink="http://www.w3.org/1999/xlink" width="200" height="200"><defs><style type="text/css"></style></defs><path d="M499.638973 247.255337 113.091196 247.255337 130.364605 308.800042 516.946151 308.800042Z" p-id="4319" fill="#00dcc2"></path><path d="M529.398764 475.114928c-6.444782 6.480598-15.017018 10.04682-24.150026 10.04682l-0.014326 0c-9.119705 0-17.70729-3.566222-24.15105-10.04682-6.441713-6.468318-10.011005-15.092743-10.011005-24.251334 0-9.155521 3.555989-17.778922 10.011005-24.260543l6.046716-6.060019-6.04774-6.069229-15.609513 15.671934c-8.080026 8.115841-12.529361 18.871813-12.516058 30.333866 0 11.44875 4.449335 22.206768 12.516058 30.308283 8.065699 8.105608 18.795065 12.5662 30.195719 12.5662 11.412934 0 22.132066-4.460592 30.197766-12.5662l15.612583-15.672958 12.081153 12.131295-18.113543-18.189268L529.398764 475.114928z" p-id="4320" fill="#00dcc2"></path><path d="M582.132802 256.665661 775.427156 256.665661 766.805802 225.895867 573.481771 225.895867Z" p-id="4321" fill="#00dcc2"></path><path d="M909.703349 671.992901l-71.400167-243.713674-5.924943-20.188808-20.793582 0L649.894092 408.090419l0-64.811098L214.125287 343.279321l0 254.17391-76.410274 0 12.263301 43.736107 64.146972 0L214.125287 786.43435l26.52512 0c3.805676 17.905812 12.770861 33.943067 25.292036 46.462195l0.097214 0.096191c16.857946 16.85897 40.122813 27.284413 65.757656 27.284413 25.672706 0 48.904827-10.391674 65.795519-27.284413l0.094144-0.096191c12.519128-12.486382 21.48943-28.556383 25.288966-46.462195l195.765639 0 31.118741 0c3.77293 17.905812 12.743232 33.943067 25.263383 46.462195l0.091074 0.096191c16.863063 16.85897 40.123836 27.284413 65.762773 27.284413 25.640983 0 48.900733-10.391674 65.793472-27.317159l0.096191-0.097214c12.485359-12.485359 21.457708-28.551266 25.258267-46.458101l50.868551 0 27.916816 0 0-27.92091 0-78.756715 0-3.641947L909.703349 671.992901zM453.391672 418.028768l15.610536-15.673981 12.082176-12.131295 30.199813 30.320563-18.116613 18.179035c-3.222391 3.245927-5.004991 7.55814-5.004991 12.141528 0 4.574179 1.781576 8.886391 5.004991 12.120039 3.220345 3.245927 7.507998 5.031597 12.082176 5.031597 4.558829 0 8.847505-1.785669 12.06785-5.031597l18.129916-18.190291 30.196743 30.321586-12.0832 12.132318-15.612583 15.672958c-11.289114 11.339256-26.306132 17.584494-42.277896 17.584494-15.95846 0-30.978549-6.245238-42.276872-17.584494-11.30037-11.337209-17.522072-26.405393-17.522072-42.439578S442.091302 429.368024 453.391672 418.028768zM482.583528 562.188053l48.983621 51.485605-12.08013 12.117992-48.982598-51.485605L482.583528 562.188053zM334.991052 391.6991l12.0832 12.129248c4.845355 4.858658 7.522324 11.326976 7.522324 18.202571-0.008186 3.846608-0.873903 7.556093-2.466168 10.93812l48.895617 47.338145-11.870352 12.343119-49.050136-47.486524c-3.432169 1.671059-7.213285 2.579755-11.146874 2.579755-6.840802 0-13.284561-2.677992-18.117636-7.532557l-12.08013-12.132318L334.991052 391.6991zM358.263082 793.56577c-6.752798 6.716982-16.10377 10.872628-26.466792 10.872628-10.364045 0-19.676132-4.155646-26.429952-10.872628-6.719028-6.750751-10.868535-16.096607-10.868535-26.431999 0-10.363022 4.149507-19.711947 10.868535-26.462698 6.754844-6.715959 16.065907-10.869558 26.429952-10.869558 10.363022 0 19.715017 4.154623 26.466792 10.869558 6.715959 6.751774 10.870582 16.099676 10.870582 26.462698C369.134687 777.469164 364.980064 786.816043 358.263082 793.56577zM367.706151 649.558959c-8.05342 8.103562-18.785855 12.56313-30.199813 12.56313-11.396561 0-22.127973-4.459568-30.194696-12.551874-8.067746-8.103562-12.515035-18.860557-12.515035-30.320563 0-11.464099 4.448312-22.218024 12.515035-30.321586l1.014096-0.870834 88.373747-64.444754 10.04989 13.866822-87.803765 64.037479c-4.560876 4.795213-7.062859 11.066033-7.062859 17.73185 0 6.877641 2.664689 13.33061 7.509021 18.190291 9.530051 9.578146 26.070772 9.738805 35.787064 0.431835l63.788815-88.112804 13.82896 10.086729L367.706151 649.558959zM346.319052 610.403171l0 17.150612-17.089214 0 0-17.150612L346.319052 610.403171zM407.234423 510.369873l12.018731-12.19474 33.877575 33.628912-12.006452 12.205996L407.234423 510.369873zM555.755038 650.02968c-8.338922 8.364505-19.281135 12.552897-30.221302 12.552897-10.917654 0-21.819958-4.163833-30.124088-12.503778l-54.272068-56.788377 12.082176-12.130272 54.271044 56.802704c9.963932 9.986445 26.182312 9.960863 36.184107-0.064468 9.986445-10.024308 9.959839-26.365484-0.050142-36.44198l-54.16155-56.67786 12.069897-12.130272 54.172807 56.689117C572.382741 606.090958 572.4073 633.326253 555.755038 650.02968zM767.408529 793.56577c-6.750751 6.716982-16.102746 10.872628-26.464745 10.872628-10.330276 0-19.678178-4.155646-26.428929-10.872628-6.721075-6.750751-10.870582-16.096607-10.870582-26.431999 0-10.363022 4.149507-19.711947 10.870582-26.462698 6.750751-6.715959 16.098653-10.869558 26.428929-10.869558 10.361999 0 19.715017 4.154623 26.464745 10.869558 6.716982 6.751774 10.871605 16.099676 10.871605 26.462698C778.280134 777.469164 774.125511 786.816043 767.408529 793.56577zM855.069031 730.593554l-28.429493 0c-4.720511-10.996448-11.471262-20.920472-19.774369-29.284977l-0.096191-0.092098c-16.892739-16.829294-40.152489-27.288506-65.793472-27.288506-25.638937 0-48.898687 10.425444-65.762773 27.288506l-0.091074 0.092098-0.571005 0.571005L674.550655 463.871863l116.214838 0 64.302515 219.467457L855.068008 730.593554z" p-id="4322" fill="#00dcc2"></path><path d="M334.991052 428.089915c1.62501-1.63729 2.515287-3.77907 2.515287-6.060019 0-2.292206-0.890276-4.449335-2.499937-6.071276l-0.01535 0-12.079106 12.117992c1.620917 1.62501 3.76679 2.515287 6.046716 2.515287C331.236542 430.591899 333.381391 429.701622 334.991052 428.089915z" p-id="4323" fill="#00dcc2"></path><path d="M658.446885 213.564004 646.184607 169.862689 371.603925 169.862689 383.835504 213.564004Z" p-id="4324" fill="#00dcc2"></path></svg>