<?xml version="1.0" standalone="no"?><!DOCTYPE svg PUBLIC "-//W3C//DTD SVG 1.1//EN" "http://www.w3.org/Graphics/SVG/1.1/DTD/svg11.dtd"><svg class="icon" width="64px" height="64.00px" viewBox="0 0 1024 1024" version="1.1" xmlns="http://www.w3.org/2000/svg"><path d="M499.801605 65.892824c8.132604 0 16.264186 0 24.39679 0 2.150069 0.238442 4.292975 0.61606 6.449185 0.695882 33.485208 1.251564 66.410641 6.251677 98.693407 15.179429 85.508498 23.645647 157.743054 68.744915 216.703669 134.978516 38.36866 43.101678 67.073776 92.014991 86.353789 146.39302 13.250404 37.373958 21.460784 75.84393 24.10104 115.45699 0.471767 7.072408 1.068383 14.135607 1.606668 21.203922 0 8.132604 0 16.264186 0 24.39679-0.225138 1.706957-0.498374 3.40982-0.668251 5.122917-1.837946 18.468493-2.934983 37.044438-5.642781 55.382965-5.229346 35.448004-15.505879 69.582019-29.645579 102.491079-22.06354 51.354015-52.637302 97.059109-91.81646 136.965872-42.86426 43.66043-92.568626 77.217273-149.14994 100.468929-43.522277 17.88518-88.765838 28.660088-135.763429 31.86626-7.078549 0.482-14.14891 1.071453-21.223365 1.610761-8.132604 0-16.264186 0-24.39679 0-2.150069-0.239465-4.292975-0.61606-6.449185-0.697928-33.485208-1.249517-66.410641-6.249631-98.693407-15.178406-85.508498-23.644624-157.742031-68.744915-216.702645-134.978516-38.36866-43.102701-67.074799-92.016014-86.354812-146.394044-13.251428-37.373958-21.460784-75.84393-24.100017-115.45699-0.471767-7.071385-1.068383-14.135607-1.607691-21.202898 0-8.132604 0-16.264186 0-24.39679 0.225138-1.706957 0.498374-3.40982 0.668251-5.122917 1.837946-18.468493 2.936006-37.044438 5.641758-55.382965 5.230369-35.448004 15.506903-69.580996 29.645579-102.490055 22.06354-51.355038 52.637302-97.060132 91.81646-136.965872 42.86426-43.66043 92.568626-77.218296 149.14994-100.469952 43.522277-17.88518 88.766861-28.660088 135.763429-31.865237C485.656788 67.020561 492.72715 66.432132 499.801605 65.892824zM250.993234 734.738395c174.466726 0 347.820041 0 522.293931 0-1.950515-12.712119-3.12021-25.020013-5.803448-36.989177-9.662521-43.096561-27.793306-82.329956-55.738069-116.696273-18.844064-23.171834-41.306713-41.877745-69.198261-53.504084-3.061879-1.277147-5.081982-1.06736-7.734519 1.033589-21.328771 16.881269-43.690107 32.151776-68.808363 42.997296-15.448571 6.67023-31.471245 11.007209-48.337164 11.688764-26.492622 1.069406-50.546588-7.349738-73.538311-19.491848-19.185865-10.133264-36.811113-22.641736-53.668845-36.234964-2.489823-2.0068-4.417825-2.154163-7.357925-0.977304-27.928389 11.170946-50.598779 29.457282-69.540062 52.337459-29.901418 36.119325-48.766973 77.661409-58.106113 123.502609C253.302947 712.965488 252.466866 723.798727 250.993234 734.738395zM359.404423 361.722323c-0.401155 83.807681 67.316311 152.529059 151.455559 152.529059 83.632687 0 151.455559-66.707414 151.725725-151.783033 0.268119-83.88648-66.213134-152.318248-151.413601-152.509615C426.819999 209.769413 359.87312 277.724298 359.404423 361.722323z" fill="#ffffff" /></svg>