<?xml version="1.0" standalone="no"?><!DOCTYPE svg PUBLIC "-//W3C//DTD SVG 1.1//EN" "http://www.w3.org/Graphics/SVG/1.1/DTD/svg11.dtd"><svg t="1493983665664" class="icon" style="" viewBox="0 0 1024 1024" version="1.1" xmlns="http://www.w3.org/2000/svg" p-id="1990" xmlns:xlink="http://www.w3.org/1999/xlink" width="200" height="200"><defs><style type="text/css"></style></defs><path d="M321.536 738.304c-0.512 1.024 0 1.024 0 1.536 0-0.512 0-0.512 0.512-1.024 0 0 0-0.512-0.512-0.512z" fill="#d81e06" p-id="1991"></path><path d="M433.152 791.552c-13.824-1.536-26.112-7.168-37.888-12.288v1.536c0-3.584-5.12 0-3.584-3.584-3.584 0-5.12 1.536-7.168-1.536-3.584-3.584-7.168-7.168-13.824-7.168 0 1.536-1.536 3.584-3.584 3.584 0-1.536 3.584-1.536 1.536-5.12-5.12-1.536-8.704-7.168-13.824-8.704l-3.584 3.584c-1.536-1.536-3.584-1.536-5.12-3.584 1.536-7.168-8.704-10.752-15.872-12.288 1.536-5.12-5.12-1.536-3.584-7.168-1.536-1.536-1.536 1.536-3.584 1.536 0-1.024-1.024-1.024-2.048-1.024-1.024 3.584 0 7.68-3.072 7.68 1.536-3.584-3.584-1.536-3.584-3.584v-3.584h3.584c-3.584-1.536-3.584-5.12 0-7.168 0-3.584-1.536 1.536-5.12 3.584-1.536 1.536 3.584 1.536 0 3.584 0 0 0-1.536-1.536-1.536-1.536 1.536-1.536 5.12-1.536 8.704 5.12 0 5.12 3.584 8.704 5.12 0-1.536 0-3.584 1.536-3.584v5.12c8.704 5.12 17.408 12.288 27.648 17.408 1.536-7.168 7.168 3.584 10.752-1.536 0 1.536 1.536 1.536 1.536 3.584-3.584 0-3.584 1.536-3.584 5.12 7.168-1.536 8.704 1.536 12.288 5.12 1.536-1.536-3.584-3.584 0-5.12 1.536 1.536 1.536 3.584 1.536 7.168 7.168 1.536 12.288 3.584 19.456 7.168 1.536-3.584-3.584-3.584-3.584-7.168 3.584-1.536 0 3.584 3.584 1.536 1.536-1.536 1.536-3.584 1.536-7.168 1.536 1.536 7.168 5.12 3.584 8.704 0 0 0-1.536-1.536-1.536 0 3.584 1.536 5.12 1.536 7.168 7.168-1.536 7.168 1.536 12.288 1.536 0-1.536 1.536-3.584 1.536-5.12 0 0 1.536 1.536 1.536 5.12h5.12c-1.536 3.584 0 3.584 0 5.12 4.096 1.024 7.68 2.048 11.264 3.072 0.512 1.024 1.024 1.024 1.024 1.024 2.56 1.024 4.096 1.024 7.168 2.048-1.536-3.584 1.536-5.12 1.536-7.168 1.536 0-1.536 5.12 1.536 3.584 1.536-3.584-1.536-3.584-1.536-5.12h4.096v-5.12c-3.584 0-5.12 1.536-7.168 1.536 1.536-1.024 0-1.024 0-3.072m-48.64-12.288s-1.536 1.536-1.536 0c0-1.024 2.048-0.512 2.048-2.048 0 1.024 0 2.048-0.512 2.048m103.936 27.136c0 1.536 1.024-0.512 0 0m0 0c-1.024-2.56-1.024-1.024 0-4.608-5.12-1.536-10.752-1.536-17.408 0 0-1.536-3.584-3.584-5.12-3.584 0 1.536 1.536 3.584 0 3.584s-1.536-1.536-1.536-3.584c-3.584 1.536-7.168 1.536-8.704 0-1.024 2.56-1.024 4.096-1.024 5.632 0.512 3.072 1.024 5.632-1.024 6.656 3.584 1.536 3.584 5.12 8.704 3.584 1.536-3.584-3.584 0-1.536-3.584 5.12 0 15.872-3.584 12.288 3.584v-3.584c-3.584 1.536-3.584 3.584-5.12 5.12 7.168 0 15.872 1.536 17.408-3.584v5.12c1.536 0 1.536-7.168 1.536-10.752h1.536m-33.28-2.56" fill="#d81e06" p-id="1992"></path><path d="M448.512 801.792c3.584-5.12 10.752-1.536 0-5.12 0 5.12-1.536 7.168-1.536 10.752 0 0-5.12 1.536-3.584 1.536 5.12-1.536 5.12 3.584 10.752 1.536 0-2.56 0-4.608 1.024-6.656-3.072 1.024-5.12-2.048-6.656-2.048z m-157.696-82.944c3.584 1.536 3.584-1.536 5.12-1.536v-3.584h-3.584c1.536 3.584-1.536 3.584-1.536 5.12z m-23.552-394.752c0-0.512-2.048-0.512 0 0z m428.032-50.176c-1.536 5.12-7.168 13.824 0 15.872 3.584 1.536 0-3.584 3.584-1.536 1.536 3.584-3.584 0-1.536 3.584 7.168 5.12 10.752 13.824 22.528 15.872 0 1.536-5.12-1.536-3.584 1.536 1.536 0 3.584 1.536 3.584 5.12 1.024 0.512 1.536 0.512 1.536 0 0.512-1.024 1.024-1.024 1.024-1.024-1.024 5.632 10.752 4.096 5.632 7.68 1.536 0 1.536-1.536 5.12 0 0 0-1.536-1.536 0-1.536 1.536 3.584 1.536 0 3.584 0 0 1.536 3.584 3.584 1.536 8.704h-3.584v3.584c3.584 0 3.584 0 7.168-1.536 0 1.536-1.536 3.584-5.12 3.584 3.584 3.584 1.536 3.584 5.12 7.168l17.408-5.12c-1.536 0-3.584 1.536-3.584 0v-3.584c-3.584-1.536-5.12-5.12-7.168-8.704-1.536-1.536-1.536 3.584-3.584 0 0 0 1.536 0 1.536-1.536-1.536-1.536-3.584-1.536-3.584-3.584-1.536-1.536-3.584 3.584-5.12 0h3.584c0-1.536-3.584-3.584-3.584-7.168h-4.608v-5.12c-13.824-7.168-15.872-24.576-34.816-24.576 0 0 1.536 3.584 0 3.584 1.536-3.584-3.584-5.12 0-7.168 1.536 3.584 1.536-1.536 5.12 1.536 0-5.12-7.168-10.752-12.288-7.168 0.512 1.536 4.096 0 4.096 1.536z m-428.032 46.592z m94.72 367.104c0 1.536 0 3.584-3.584 3.584-1.536 3.584 3.584 0 1.536 3.584 1.536 0 0-3.584 3.584-3.584 1.536 3.584-3.584 3.584-1.536 7.168 3.584-1.536 3.584 1.536 5.12 1.536 0-3.072 1.024-4.608 2.56-6.144-2.048-2.56-5.12-4.608-7.68-6.144z m319.488-407.04c0.512-0.512 0-0.512 0 0 0-0.512 0 0 0 0zM242.688 381.44c0.512 0 0.512-0.512 1.024-0.512-0.512 0-0.512 0-1.024 0.512z m437.248-102.4c0 1.024 1.024 1.024 1.536 1.024 0 0-0.512-1.024-1.536-1.024zM486.912 818.176h3.584c-1.536-5.632 3.584-5.632 3.584-7.168-1.536-2.048-7.168 1.536-7.168 7.168z m-168.448-79.36c1.024 0 2.56-1.024 3.072-1.024 0-0.512 0.512-0.512 0.512-1.024-1.536-1.024-1.536 2.048-3.584 2.048z m-26.112-18.432v5.12c1.536 0 3.584-1.536 3.584-3.584-3.584 2.048-0.512-3.072-3.584-1.536z m78.336-27.648l-1.024 1.024s0.512 0 0.512 0.512c0-1.024 0.512-1.536 0.512-1.536z" fill="#d81e06" p-id="1993"></path><path d="M570.368 727.04c-5.12 3.584-13.824 3.584-17.408 7.168-1.536-3.584-5.12 0-7.168 1.536-10.752-3.584-24.576 3.584-37.888 1.536 0 0 0 1.536-1.536 1.536 0-1.536 1.536-1.536 1.536-1.536-10.752 0-17.408-1.536-24.576 1.536v-3.072c-5.12 0-8.704 0-12.288-1.536-3.584 1.536-3.584 3.584-3.584 5.12 0-1.536-1.536-1.536-1.536-1.536 1.536 0 1.536-1.536 1.536-3.584-5.12 0-8.704-1.536-12.288-3.584 0 1.536 1.536 3.584 0 3.584-3.584-3.584-8.704-5.12-12.288-7.168 0 1.536 1.536 3.584 0 3.584 0 0-1.536 1.536-1.536 0 0 0 1.536 0 1.536-1.536-5.12 0-8.704-1.536-13.824-3.584-1.536 0 0 3.584-1.536 3.584 0 0-1.536 1.536-1.536 0 1.536 0 1.536 0 1.536-3.584-3.584-1.536-7.168 1.536-10.752 0 0-1.536 5.12 1.536 3.584-1.536-10.752-1.536-13.824-10.752-24.576-12.288 0 1.536-1.536 3.584-3.584 3.584-1.536-3.584 1.536-3.584 1.536-5.12-9.216-5.12-16.896-10.752-24.576-16.896-1.024 2.56 0.512 4.096 0.512 6.144h-3.584c1.536 3.584 5.12 5.12 8.704 7.168 1.536-3.584-3.584 0-1.536-3.584h3.584c0 3.584 1.536 5.12 1.536 7.168 1.536 0 1.536-1.536 1.536-1.536 3.584 5.12 8.704 10.752 19.456 10.752-1.536 1.536 0 1.536 0 3.584 3.584 0 5.12 1.536 7.168 1.536 0-1.536 3.584-3.584 5.12-1.536-1.536 0-1.536 1.536-1.536 5.12 3.584 0 7.168 0 8.704 3.584 3.584 1.536 0-3.584 3.584-1.536-1.536 3.584 3.584 0 1.536 3.584 15.872 3.584 34.816 13.824 52.224 10.752 1.536 0 0 3.584 3.584 3.584s1.536-3.584 5.12-3.584v3.584c5.12-1.536 10.752 0 15.872 1.536-1.536-3.584 1.536-3.584 1.536-5.12-1.536 0-3.584 3.584-5.12 0 1.536-1.536 3.584-1.536 5.12-3.584 0 1.536 3.584 0 3.584 1.536v1.536c-3.584 0-3.584 0-3.584 3.584 10.752 0 19.456-1.536 32.768-1.536 0-1.536-1.536-3.584 0-3.584v3.584c3.584-3.584 12.288-1.536 15.872-5.12 0 0 0 1.536 1.536 1.536 13.824-5.12 31.232-7.168 41.472-15.872 5.12 0 13.824-1.536 15.872-7.168 0 0 0 1.536 1.536 1.536 6.656-5.12 15.36-8.704 22.016-13.824l1.024-1.024c2.048-1.536 3.584-3.072 5.12-5.12 1.536-1.536-3.584 1.536-1.536-1.536 5.12 1.536 7.168 0 7.168-3.584 1.536 0 0 1.536 0 3.584 3.584 0 1.536-5.12 8.704-3.584 1.536-1.536-3.584-3.584 0-5.12 1.024 1.024 2.56 1.536 3.072 1.536l0.512 0.512v-0.512c1.024-0.512 2.048-2.048 3.072-3.072h2.048v-1.536c1.024-0.512 2.048-0.512 3.584-0.512v-3.584c8.704-3.584 12.288-12.288 20.992-17.408 0-7.168 7.168-7.168 7.168-13.824h3.584c0-3.584 3.584-8.704 0-12.288 5.12 1.536 7.168-1.536 8.704-3.584 12.288-22.528 20.992-37.888 27.648-66.048-5.12-1.536-5.12 5.12-10.752 3.584-7.168 31.232-15.872 45.056-31.232 66.048 0 3.584 1.536 10.752 0 12.288-1.536-1.536-3.584-1.536-7.168-1.536-13.824 17.408-29.184 34.816-48.64 47.104v1.536c-7.168-1.536-12.288 3.584-15.872 8.704-12.288 1.536-20.992 12.288-34.816 13.824 0 1.536 1.536 3.584 0 3.584-3.584-3.584-12.288 0-13.824 5.12-1.536 0 1.536-5.12-1.536-3.584z m-283.136-13.312c1.536 1.536 0 5.12 1.536 5.12 0-1.536 1.536-5.12-1.536-5.12z m217.088-76.8c1.536 1.536 1.536 3.584 5.12 3.584 0-2.048-1.536-3.584-5.12-3.584z m154.624-297.472s-1.024-1.536-1.024-3.072c-0.512 1.024-1.024 2.56-1.024 3.072h2.048zM558.08 284.16c-5.12-1.536-1.536 3.584-5.12 3.584v-7.168c-12.288 0-13.824 0-24.576-3.584-2.048 2.048-3.584 3.584-7.168 3.584v-3.584h-5.12c1.536 3.584 0 1.536 3.584 7.68 3.584 0 7.168 3.584 8.704 0 1.536 3.584 10.752 0 12.288 3.584-1.536-3.584 3.584-5.12 7.168-3.584v1.536c-1.536 0-5.12-2.048-5.12 1.536 6.656-2.048 6.656 3.072 13.824 1.536-2.048-3.584 1.536-3.584 1.536-5.12z m30.72 13.824c0 3.584 5.632 5.12 10.752 5.12 0-2.048 0-2.048 1.536-3.584-1.536 0-1.536 0-1.536-1.536v-3.584c-3.584 2.048-10.752-1.536-12.288-5.12-1.536 0-1.536 1.536-1.536 1.536 0-3.072-6.144-3.584-8.192-1.024 1.536-4.608-6.144 1.024-12.8-1.024 0-1.536-1.536-1.536 0-5.12-3.584 0-1.536-3.072-5.12-1.536v8.704c5.12-1.536 8.704 3.584 12.288 0 3.584 7.168 10.24 7.168 17.408 8.704 0-1.536-1.536-5.12 0-5.12 0 1.536 3.584 3.584 3.584 5.12-4.096 2.048-0.512-3.072-4.096-1.536z m9.728 0c0 1.024 0 1.536-1.024 1.536 0 0-1.536 0-1.536-1.536h2.56z m30.72 12.288c0 1.536-1.536 3.584-1.536 5.12-3.584-2.048 0-5.632 0-7.168-5.632 0-3.584-5.12-10.752-3.584 2.048 3.072 3.584 3.072 5.632 5.12-2.048 2.048-3.584 2.048-3.584 3.584 3.584 1.536 5.12 3.584 8.704 5.12 0-1.536 1.536-1.536 5.12-1.536-1.536-3.584-1.536-1.536 0-5.12-3.584 2.048 0-3.072-3.584-1.536z" fill="#d81e06" p-id="1994"></path><path d="M608.256 300.032c0 3.584 3.072 1.536 1.536 5.12h-3.584c-1.536 2.048 0 2.048 0 3.584 3.584 2.048 3.584-1.536 5.12-1.536 0 3.584 3.584 3.584 7.168 5.12 2.048-3.584-3.072-3.584-1.536-7.168v-3.584c-3.584 2.048-5.12-1.536-8.704-1.536z m-261.12 44.544c0-1.536-1.536 0-1.536 0 0 0.512 0 0.512-0.512 1.024 0.512 0 1.024 0 2.048-1.024z m163.84-69.632h-8.704c0 2.048 1.536 3.584 0 3.584h-1.024c3.584 0 5.12 2.048 1.536 3.584 0-1.536 0-2.048-1.536-3.584h-0.512v-2.56c-2.048 0-7.168 0-7.168 1.536-3.584-3.584-13.824-1.536-17.408 0 0 2.048 2.048 3.584-1.536 3.584-3.072 0 2.048-3.584-1.536-3.584-1.536 0-1.536 3.584-5.12 3.584-3.584-5.12-13.824-1.536-20.992 0-2.048 3.584 3.072 0 1.536 3.584-3.584-2.048 0 3.072-3.584 1.536 1.536-5.12 0 0-3.584-3.584 0 1.536 1.536 5.12 0 5.12v-3.584c-12.288 0-15.872 7.168-27.648 7.168 2.048 2.048-1.536 2.048-1.536 3.584-17.408 6.656-32.768 15.36-45.056 26.112 2.048 0 3.584-1.536 3.584 0 0 3.584-3.584 5.12-3.584 8.704 19.456-10.752 36.352-26.112 60.928-31.232 3.584-3.584 9.216-3.584 10.752-7.168 0 1.536 0 1.536 1.536 1.536 6.656-5.12 22.528-3.584 29.184-8.704 8.704 3.584 20.48-3.072 32.768-1.536h8.704c0-2.048-3.584-2.048-3.584-3.584 1.536-0.512 3.584-2.56 3.584-4.096zM350.208 343.04c-0.512 1.024-1.024 2.048-1.024 2.56 0.512-0.512 1.024-1.536 1.024-2.56z m329.728 10.752c1.536-3.584-3.584 0-3.584-3.584 0 3.584-3.584 1.536-1.536 5.12 3.584 0 1.536-3.072 5.12-1.536z m-20.992-10.752c3.584 1.536 7.168 1.536 7.168 5.12 2.048-1.536 3.584-5.12 3.584-8.704-3.584 5.632-3.584-6.656-10.752-5.12 1.536 3.584 3.072 3.584 5.12 5.12-3.584 0-5.12 2.048-5.12 3.584z m-24.064-22.528c1.536 0 0 3.584 1.536 5.12 3.584 0 5.632 1.536 7.168 1.536 2.048 0 0-3.072 3.584-1.536v-5.12c-3.584 0-3.584-3.072-8.704-1.536v-3.584c-2.048 2.048-2.048-1.536-3.584-1.536 0 3.584 1.536 3.584 1.536 3.072 2.048 1.536-1.536 0-1.536 3.584z" fill="#d81e06" p-id="1995"></path><path d="M658.944 334.336c-0.512 0.512-1.024 1.024-1.024 2.048 1.024-1.024 1.024-1.536 1.024-2.048z m-311.808 10.752c-0.512 2.048-2.048 2.048-2.56 2.56 0.512-1.024 1.024-2.048 1.024-2.56-3.072 1.024-4.096 3.584-6.656 4.608 0 1.536 1.536 5.12 0 5.12-1.536-7.168-5.12 5.12-8.704 3.584 1.536 5.12-8.704 7.168-3.584 12.288-3.584 2.048 0-3.072-3.584-1.536v5.12c-5.12-2.048-3.584 5.12-8.704 5.12 0 3.584-3.072 3.584-1.536 7.168 2.048 0 3.584-1.536 3.584 0v1.536c-3.584 0-5.632 2.048-7.168 3.584 0 0 1.536-5.12 0-3.584 0 5.12-3.584 5.12-5.12 8.704 1.536 0 5.12-1.536 5.12 0-1.536 0-1.536 0-1.536 3.584 15.36-13.824 22.528-32.768 37.888-45.056-2.048-2.048-2.56-3.584-2.048-5.632h1.536l2.56-2.56c0-1.024 0-1.536-0.512-2.048z m327.168 4.608c-1.536 0-1.536 0-1.536-1.536h-5.12c0 3.584 1.536 3.584 1.536 5.12 3.584 0 3.584-2.048 5.12-3.584z m-16.896-18.944c-5.632 0-7.168 0-10.752-1.536 1.536 1.536-3.584 0-1.536 1.536 2.048 1.536 9.216 1.536 10.752 5.12-2.048-3.584 1.536-3.584 1.536-5.12z m-142.336 480.256v3.584c1.536-2.048 1.536 3.072 1.536 0-1.536-1.536 0-1.536 0-3.584h-1.536zM347.136 352.256c1.024-2.56 1.024-4.096 2.048-6.144l-1.536 1.536c0 1.024-0.512 3.072-0.512 4.608z" fill="#d81e06" p-id="1996"></path><path d="M235.008 408.064s-1.536-3.584 0-5.12c1.536 0-1.536 7.168 1.536 5.12-1.536-8.704 3.584-8.704 3.584-13.824-1.024-2.56-1.536-4.096-2.56-5.12 1.024-1.024 1.024-1.536 1.024-2.56 2.56 0.512 1.024 3.072 4.608 1.536 1.536-3.584-3.584 0-1.536-3.584 1.024 1.024 0.512-1.536 1.024-2.56-0.512 0.512-1.024 0.512-2.048 0 0.512-0.512 1.024-0.512 1.024-0.512 0-1.536-3.584-3.584-1.536-5.12 0 1.536 3.584 0 1.536 3.584 1.536 1.536 0-1.536 1.536-1.536l1.536 1.536c-1.024 0-1.024 1.024-1.536 1.024 0 0 0 1.536 1.536 1.536 8.704-17.408 17.408-34.816 31.232-47.104v-5.12h3.584c0-8.704 8.704-7.168 10.752-15.872h3.584c1.536-5.12 7.168-10.752 12.288-13.824 7.168-5.12 10.752-12.288 17.408-13.824 1.536-3.584 3.584-5.12 5.12-7.168 5.12 1.536 3.584-3.584 8.704-3.584 7.168-10.752 24.576-13.824 34.816-24.576 26.112-8.704 48.64-22.528 81.408-26.112 1.536-1.536-3.584-1.536 0-3.584 20.992 1.536 48.64-3.584 76.288-1.536 0-1.536 0-3.584 3.584-1.536-1.536 1.536 1.536 1.536 1.536 3.584 7.168-1.536 13.824 3.584 17.408 0 3.584 3.584 13.824 7.168 15.872 0v5.12c3.584 0 7.168 0 8.704 1.536 1.536-3.584-1.536-3.584-1.536-5.12 3.584 1.536 0-3.584 3.584-1.536 1.536 3.584-3.584 0-1.536 3.584 1.536 0 1.536 1.536 1.536 3.584 7.168 0 13.824 3.584 19.456 5.12 0 0 0-1.536 1.536-1.536-3.584-1.536 1.536-3.584-1.536-7.168h3.584c0 1.536 0 1.536 1.536 3.584-3.584 1.536-3.584 3.584-3.584 8.704 1.536 1.536 0-3.584 1.536-3.584 0 0 1.536-1.536 1.536 0 0 0-1.536 0-1.536 1.536 1.536 0 1.536 0 1.536 1.536 1.536 1.536 1.536-1.536 3.584-1.536v4.608c27.648 8.704 48.64 24.576 71.68 37.888 0-1.536 3.584-3.584 5.12-1.536-1.024 0-0.512 2.56-1.024 3.584h3.072c1.536-5.12 1.536-12.288 1.536-17.408-5.12 1.536-5.12-5.12-10.752-3.584 1.536-1.536 0-1.536 0-3.584-19.456-10.752-36.352-20.992-55.808-29.184-1.536 0 0 3.584-3.584 1.536v-3.584c-8.704 0-13.824-8.704-22.528-5.12 1.536 0 1.536 0 1.536 1.536-3.584 1.536-7.168 1.536-10.752 3.584 0-3.584 3.584-1.536 3.584-5.12 1.536-1.536-1.536 3.584 1.536 1.536 0-1.536 3.584 0 1.536-3.584-12.288-3.584-24.576-7.168-37.888-8.704 0 1.536 0 3.584-1.536 3.584 1.536-3.584-3.584-3.584-7.168-3.584 0 1.536-1.536 3.584-5.12 3.584v-5.12c-8.704-1.536-15.872 5.12-17.408-1.536-5.12 1.536-5.12 0-10.752 1.536-5.12-3.584-17.408 0-27.648 1.536 0 3.584-5.12 1.536-1.536 5.12-1.024 0-2.56 0.512-3.584 1.024v-1.024l-1.024 1.024c-1.024 0-1.024 0-1.024-1.024 0-1.536 3.584-1.536 1.536-3.584-13.824-1.536-20.992 3.584-32.768 1.536 1.536 1.536-1.536 1.536-1.536 3.584-7.168-1.536-19.456 3.584-26.112 7.168-3.584 1.536 0-3.584-3.584-1.536-7.168 3.584-13.824 3.584-20.992 7.168 0 1.536 1.536 3.584 0 3.584-1.536-5.12-7.168 0-8.704 0 0 1.536 1.536 5.12 0 5.12s1.536-7.168-1.536-5.12l-3.584 3.584c-47.104 19.456-79.872 48.64-111.104 83.456 0 1.536 3.584 1.536 3.584 3.584-3.584-1.536 0 3.584-3.584 1.536 0-1.536 1.536-3.584-1.024-3.584 0.512 1.024 1.024 3.584-0.512 3.584h-0.512c0 0.512-0.512 1.024-1.024 1.536-1.536 1.536-5.12 1.536-5.12 3.584v3.584c-1.536 0-3.584 0-5.12 1.536 0 1.536 0 5.12-1.536 7.168-1.536 3.584-1.536 1.536-3.584 5.12l-3.584 1.536c0 1.536 0 5.12-1.536 7.168 3.584 1.536 0-5.12 3.584-3.584 0 3.584-1.536 5.12-1.536 8.704 0 0 1.024 1.536 1.024 3.584h-1.024c0-1.024-0.512-1.536-0.512-3.072h-7.168c-3.584 7.168-5.12 13.824-8.704 19.456 1.536 0 1.536 5.12 0 7.168 0 0 0-1.536-1.536-1.536 1.024 1.024 1.024 2.56 1.536 3.584 0 0-0.512 0-0.512-0.512-3.072 1.024-1.536 10.24-6.656 7.168 1.536-3.584 1.536-5.12 3.584-8.704h-3.584c0 1.536 1.536 7.168-1.536 7.168 0 1.536 3.584 1.536 1.536 5.12h-5.12c1.536 3.584-1.536 3.584-1.536 5.12 3.584-1.536 3.584 1.536 5.12 1.536 1.536-1.536 0-5.12 3.584-5.12-1.536 5.12-1.536 7.168 0 12.288-1.536 0-5.12 1.536-5.12 0-1.536-1.536 1.536-1.536 1.536-3.584-5.12 1.536-3.584-1.536-7.168-1.536 1.536 7.168-1.536 8.704 0 13.824h-3.584c0 12.288-5.12 20.992-7.168 32.768-1.536 12.288 0 15.872-3.584 27.648h15.872c1.024-32.768 9.728-50.176 18.432-74.752z m5.12-25.6c0.512 1.536-0.512 2.56-1.024 2.56 0.512-1.024 1.024-2.048 1.024-2.56z m517.12 269.312c-1.536 3.584 3.584 0 1.536 3.584-1.536 0-1.536 3.584-5.12 1.536-1.536 5.12-3.584 10.752-3.584 17.408l-1.536-1.536c1.536 0 1.536 0 1.536-3.584-3.584 5.12-7.168 8.704-10.752 13.824-1.536 1.536 3.584 3.584 1.536 5.12 0 0-1.536 0-1.536-3.584-3.584 3.584-7.168 7.168-7.168 12.288-1.536 1.536-1.536 0-3.584 0 0 1.536 0 5.12-5.12 5.12-3.584 7.168-15.872 12.288-12.288 19.456l-3.584-3.584v3.584c-12.288 3.584-17.408 15.872-29.184 20.992 0 1.024 0.512 1.024 1.024 1.024-2.56-1.024-4.608 2.048-7.68 2.048v3.584c-17.408 10.752-34.816 17.408-50.176 27.648-1.536-1.536-10.752 1.536-12.288 5.12 0 0 0-1.536-1.536-1.536-7.168 5.12-19.456 7.168-29.184 8.704-1.536 3.584 1.536 1.536 1.536 5.12-1.536 0-3.584 1.536-5.12 0 1.536 0 1.536 0 1.536-1.536-3.584 1.536 0-3.584-3.584-1.536-5.12 3.584-17.408 0-20.992 5.12-3.584-3.584-12.288 0-15.872 0 3.584 3.584-1.536 3.584 0 8.704h0.512c-0.512 1.024 1.024 3.072-2.048 1.536 1.536-3.584-3.584-1.536-3.584-3.584-1.536-1.536 1.536-1.536 1.536-3.584-5.12 0-3.584 8.704-10.752 5.12 0-1.536-1.536-3.584 0-3.584 3.584-1.536 0 5.12 3.584 3.584v-8.704c-3.584-1.536-5.12 3.584-7.168 0 0 3.584-7.168 1.536-8.704 1.536 0 1.536 1.536 5.12 0 5.12-1.536-5.12-1.536 3.584-3.584 1.536-1.536-3.584 3.584-3.584 1.536-7.168h-8.704c0 1.536 5.12 1.536 5.12 3.584 0 0 0 3.584-1.536 3.584s0-3.584-3.584-1.536c1.536 1.536 3.584 5.12 0 8.704 3.072 0.512 5.632 0.512 8.704 0.512-1.024 1.024-2.048 1.536-3.072 1.536 0 1.536 0 3.584 1.536 3.584-0.512-3.584 4.096-3.584 4.608-5.12 9.728-1.024 17.408-2.56 22.528 0 5.632-1.024 12.8-1.536 18.432-3.072-0.512 1.024-1.024 1.536-1.024 3.072h3.584c0-2.048 0.512-3.072 0.512-4.096 2.048-1.024 3.584-1.536 4.608-2.56 1.536 1.536-1.536 1.536-1.536 3.584 5.12-1.536 12.288-1.536 13.824-5.12 1.536 0 1.536 0 1.536 1.536 3.584 0 3.584-3.584 7.168-3.584 0 1.536 0 3.584 1.536 3.584 3.584-1.536 5.12-3.584 10.752-3.584 0-1.536-1.536-5.12 0-5.12 1.536 5.12 7.168 1.536 10.752 1.536 0-1.024-2.56-2.56-2.56-3.584h-1.024v-5.12c3.584-1.536 3.584 1.536 7.168 1.536 0 2.56-1.024 4.096-2.56 5.12 2.56-0.512 5.12-1.024 7.68-2.048 0 1.024 0.512 1.024 1.536 0.512 0-0.512 0.512-1.024 0.512-1.024 6.144-2.048 11.776-4.096 17.408-6.656 1.024 1.536 2.048 2.048 3.072 1.024v-2.56c5.632-2.56 11.776-5.632 17.408-9.216v1.024h5.12c0-1.024 1.024-3.584 1.024-4.096 1.024-0.512 2.048-1.024 2.56-1.536 1.024 0 2.048-1.024 2.56-1.536 2.56-1.024 5.12-2.56 7.68-3.584 0-1.536-1.536-3.584 0-5.12 0 1.536 0 3.584 1.536 3.584 12.288-5.12 20.992-13.824 31.232-20.992 1.536-3.584-3.584 0-1.536-3.584 3.584-1.536 0 3.584 3.584 1.536 0-1.536-1.536-5.12 0-5.12s-1.536 5.12 1.536 3.584c10.752-13.824 26.112-22.528 34.816-37.888-1.536 0-3.584 1.536-3.584 0 1.536 0 1.536-1.536 3.584-1.536v3.584c5.12-1.536 7.168-8.704 10.752-13.824 1.536-1.536 3.584-1.536 5.12-3.584 1.536-1.536 0-5.12 1.536-7.168 1.536-1.536 5.12-3.584 7.168-5.12 1.536-3.584 1.536-7.168 3.584-10.752 0-1.536 3.584 0 3.584-1.536v-3.584l5.12-5.12c1.536-5.12 3.584-12.288 5.12-15.872 1.536 0 3.584 0 3.584-1.536s-1.536-5.12 0-7.168c0-1.536 3.584-1.536 3.584-3.584v-5.12s3.584 0 3.584-1.536v-5.12s3.584-1.536 3.584-3.584c0-5.12 0-10.752 1.536-15.872 0 0 3.584-1.536 3.584-3.584 1.536-10.752 1.536-22.528 5.12-31.232l-13.824-3.584c-6.656 38.912-16.384 73.728-37.376 96.256z m-217.6 156.16s-1.536 0-1.536-3.584c-0.512 0-0.512 0-1.024-0.512 1.024-0.512 2.56-1.024 2.56 0.512 0 1.536 1.536 3.584 0 3.584z m-45.568-4.096c1.536 1.536-1.536 0-2.048 3.584h3.584c0-2.048 0-3.584-1.536-3.584z" fill="#d81e06" p-id="1997"></path><path d="M276.992 461.312c1.536 0 5.12-1.536 8.704-1.536v-7.168c-7.168 0-7.168 7.168-8.704 8.704z m326.144 333.312v1.024c0.512 0 1.024 0 1.024-0.512l-1.024-0.512zM299.008 398.848s0 1.536-1.536 1.536c0 2.048 1.536 3.584 1.536 7.168h-4.096c-5.12 14.336-12.288 26.112-15.872 43.52h5.12s0-1.536 1.536-1.536c0-1.536-1.536-7.168 0-8.704h1.536c2.048-2.048 0 1.536 3.584 1.536 0-1.536 3.072-3.584 1.536-8.704 6.656-7.168 6.656-20.992 13.824-27.648-3.584-3.584 0-2.048 0-7.168h-7.168z m51.2-55.808c0-0.512 0-0.512 0 0 0-0.512 0-0.512 0 0 0-0.512 0-0.512 0 0z m10.24-17.408c-2.048 3.584 3.072 0 1.536 3.584-3.584 2.048 0-3.072-3.584-1.536 0 0 1.536 3.584 0 3.584h-3.584c0 1.536-2.048 1.536-3.584 1.536 1.024 4.096 0 6.656-1.024 10.24 6.656-1.536 8.704-7.168 13.824-8.704-2.048-5.12 1.536-7.168 1.536-12.288-3.584 0-1.536 3.584-5.12 3.584z m-179.2 322.56c0 1.024 1.024 1.536 2.56 1.536l-1.024-2.56c0 0.512-0.512 1.024-1.536 1.024z m7.68-13.312c-1.536-14.848-4.096-28.16-12.288-38.912v-3.072c1.024-0.512 1.536-1.024 1.536-2.56 0.512 0 0.512 0.512 0.512 0.512v-5.12c-1.536 0-1.536 4.096-3.072 1.536 3.072-17.92-7.68-35.84-10.752-53.76-3.072-1.536 0 3.072-3.072 1.536 0-3.072 4.096-9.216 0-10.752v7.68c-1.536 0-1.536 1.536-3.072 1.536 0-3.072-1.536-3.072-3.072-3.072-1.536 3.072-1.536 5.632-4.096 3.072 1.536 3.072 1.536 4.096 1.536 9.216 1.536 1.536 4.096 0 4.096 1.536 0 3.072-4.096 0-3.072 3.072 5.632 9.216 4.096 25.6 13.312 31.232-3.072 4.096 1.536 16.384 4.096 19.456 0 1.536-1.536 1.536-1.536 3.072l12.8 46.08c2.56-3.072 2.56-9.728 6.144-12.288z m327.68-18.432c0.512 0.512 0.512 1.024 1.024 1.024 0-0.512-0.512-0.512-1.024-1.024z" fill="#d81e06" p-id="1998"></path><path d="M178.688 591.36c0.512 0 1.024 0 0-1.024v1.024z m104.96 91.648c43.52-7.68 82.944-20.992 124.928-31.232 1.536-1.536 0-3.072 1.536-3.072 5.632 3.072 12.288-1.536 17.92-1.536 1.536-1.536 0-3.072 1.536-3.072 9.216 3.072 30.208-7.68 46.592-9.216 0.512-0.512 0.512-1.024 0-1.536 1.024 1.024 3.584 0 4.096 0 1.536-1.536 1.536-5.632 4.096-9.216 1.536 0 1.536 5.632 0 5.632 9.216 1.536 12.288-3.072 19.456-3.072 1.536-3.072-4.096 0-3.072-3.072-3.072-1.536 0 3.072-3.072 1.536-1.536-3.072 3.072 0 1.536-3.072l-3.072 1.536c0-4.096 3.072-5.632 5.632-7.68 1.536 5.632 7.68 3.072 13.312 3.072-1.024-2.048 0-2.56 1.024-2.56-1.024-1.536-1.024-3.584-3.584-3.584 0 1.536 0 1.536-1.536 1.536-1.536 3.072 3.072 0 1.536 3.072-1.536-1.536-4.096 0-4.096-1.536s1.536-1.536 1.536-3.072c-7.68 1.536-13.312 4.096-22.528 4.096 1.536 5.632-7.68 1.536-3.072 5.632-3.072 0-5.632-1.536-3.072-3.072-4.096 0-10.752 1.536-7.68 4.096 0-1.536 0-1.536 1.536-1.536-1.536 1.536 0 4.096-1.536 4.096-1.536-1.536-3.072-1.536-4.096-3.072 0-1.536 1.536-1.536 1.536-3.072-4.096-1.536-5.632 1.536-7.68 3.072-5.632-3.072-16.384 4.096-25.6 4.096-1.536 1.536 0 3.072-1.536 3.072-3.072 1.536-4.096-1.536-5.632-1.536 0 4.096-5.632 4.096-7.68 7.68-1.536-3.072 1.536-1.536 1.536-4.096-3.072 1.536-5.632 4.096-9.216 1.536-1.536 3.072-5.632 3.072-10.752 3.072-16.384 4.096-34.304 10.752-54.272 13.312-3.072 1.536 0 3.072-1.536 4.096 0-1.536-1.536-3.072-3.072-3.072-1.536 1.536 0 3.072-1.536 3.072 0-1.536-1.536-1.536-4.096-1.536-55.808 16.384-67.584 14.848-124.928 31.232 1.536 0 1.536 0 1.536 1.536-4.096 1.536-3.072-3.072-7.68-1.536-1.536 3.072-3.072 5.632-4.096 9.216-5.632-4.096 0-10.752-3.072-16.384-1.536 1.536-4.096 4.096-5.632 1.536 0-3.072 3.072-1.536 4.096-1.536v-5.632c-1.536 0-1.536 1.536-3.072 1.536 3.072-10.752-4.096-19.456-4.096-31.232-1.536-1.536-3.072 0-3.072-1.536s-1.536-3.072-1.536-1.536c1.536 5.632-4.096 5.632-4.096 10.752h-1.024l8.704 31.232c1.536 1.536 4.096 0 4.096 1.536-1.536 1.536 0 3.072-1.536 3.072s-1.536-1.536-3.072-1.536c0 5.632 0 10.752 4.096 11.776-4.096 3.072 0 7.68 0 10.752 32.768-7.68 14.848-1.536 48.128-9.216l13.312-5.632c7.68-3.072 16.384-5.632 25.6-7.68 0-3.072-5.632-3.072-3.072-5.632 2.56 2.048 4.096 4.096 4.096 5.12z m206.848-62.464c1.536 1.536 4.096 1.536 5.632 3.072-2.56 1.536-5.12 3.584-7.68 5.632 2.048-5.632 2.048-5.632 2.048-8.704z m-14.336 10.752c-0.512 1.024-0.512 1.024-0.512 1.536 0-1.024-1.536-1.536 0.512-1.536z m412.672-147.968c-9.216-10.24-5.632-31.232-14.848-41.472 4.096-7.68-4.608-14.848-3.072-24.064-4.608-1.536 0 4.096-3.072 4.096 1.536-10.752-1.536-20.992-9.216-25.6 2.56-1.536 1.024 1.536 4.096 1.536-3.072-5.632-3.072-16.384-7.68-20.992 4.608-9.216-4.096-19.456-4.096-29.696-1.536-1.536-3.072 0-3.072-1.536 2.56-4.608-1.536-9.216-1.536-16.384-4.096 0.512-6.144 1.024-7.68 1.024l1.024 1.024c-1.024 0-2.048 0.512-2.048 1.024h0.512V337.92c1.024 0-0.512 0.512-3.584 1.024 0.512 2.56 0 4.608 3.584 4.096 1.536-3.072 0-7.68 1.536-7.68 1.024 2.56 1.024 4.096 4.096 4.096-4.096 0-3.072 7.68-7.68 4.096 4.096 17.408 9.216 32.768 13.312 50.688 1.536 1.536 3.072 0 3.072 1.536s-3.072 2.56-1.536 5.632c1.024 1.536 1.024 3.072 2.048 4.608 1.024-1.024 2.56-0.512 1.024-1.536h3.072c0 1.536-2.56 1.536-4.096 2.56 5.632 16.384 9.216 35.84 15.872 50.688 1.536-1.024 0-4.096 1.536-4.096 1.024 1.536 4.096 0 4.096 1.536s0 1.536-1.536 1.536c0 1.024 4.608 2.56 1.536 4.096-3.072 0 0-4.608-3.072-3.072-4.096 17.92 9.216 32.768 9.216 52.224 4.608 1.536 0-4.096 3.072-4.096 4.096 1.536 3.072 7.68 0 9.216-13.824-5.632-27.136 9.216-45.056 7.68-1.024 0-1.024 4.096-4.096 4.096-1.536-3.072 3.072 0 1.536-3.072-3.584 1.024-4.608 1.536-4.608 2.048-1.024 0-1.536-0.512-2.56-0.512 0 3.072-4.096 1.536-5.632 1.536-1.536 3.072 3.072 0 1.536 3.072-7.68-1.536-20.992 2.56-28.672 5.632 0-3.072-4.608 1.536-9.216 0-1.536 1.024 0 4.096-1.536 4.096-1.024 0 0-4.608-4.096-3.072 0 0.512-0.512 1.024-0.512 1.536-12.288 0-22.528 9.216-29.696 5.632-5.632 4.608-19.456 4.608-25.6 10.752-24.064 1.536-40.448 9.216-59.904 13.312-1.536 1.024 0 4.096-1.536 4.096-3.072 0-1.536-2.56-1.536-4.096-1.536 3.072-4.096 0-7.68 1.536-4.608 3.072-5.632 9.216-9.216 7.68 1.536-1.536 4.608 0 3.072-3.072-7.68 0-13.824 6.144-17.92 3.072-7.68 4.096-14.848 7.68-24.064 7.68-22.528 6.144-44.032 13.824-66.56 17.92-1.536 1.536 0 3.072-1.536 3.072 0-1.536-2.56-1.536-5.632-1.536 0 3.072-1.536 4.608-3.072 1.536 0 3.072 1.536 5.632 1.536 7.68-3.072-1.024-1.536 3.072-3.072 3.072-1.024 0-1.024-1.536-4.096-1.536 1.536 4.096-4.096 1.024-4.096 4.096 9.216 1.536 17.92-2.56 30.208-4.096 1.536-1.024 0-4.096 1.536-4.096s0 3.072 3.072 3.072c52.736-14.848 107.008-28.16 159.232-43.008 1.536-1.536 0-3.072 1.536-3.072 13.312 4.096 28.672-5.632 41.984-7.68 1.536-2.56-1.536-4.096-1.536-5.632 2.56 0 4.096 1.024 4.096 4.096 14.848-1.024 28.16-5.632 40.448-11.776-3.072 1.024-3.072-3.072-1.536-3.072 0 2.56 4.608 1.024 3.072 4.096 4.608 0 4.608-1.536 9.216-1.536v-0.512h20.48c32.768-9.216 32.768-11.776 67.584-20.992-3.584-12.8-9.216-23.04-10.752-41.472zM839.68 352.768c1.536 0 3.072 1.024 3.072 4.096-2.56-1.024-2.56-3.584-3.072-4.096z m0.512-20.992c2.56-1.024 4.096 0 4.096 3.072-3.072 0-4.096-1.536-4.096-3.072z m17.92 87.552c1.024-5.632-3.072-4.096-2.56-9.216 1.024 1.536 1.024 1.536 4.096 1.536 0 3.584 1.536 7.68-1.536 7.68z m20.992 56.832h3.072c0 1.536 0 3.072-2.048 4.096h-2.56c1.024-1.024 2.048-1.536 1.536-4.096z m-5.12-4.608h3.072v4.608c-1.024-1.024-4.096-1.024-3.072-4.608z m5.12 13.312c0-1.536-1.536-1.536-3.072-1.536 0-1.536 0.512-2.56 1.024-2.56 0.512 1.024 3.072 1.536 3.072 2.56 3.072 0 0-5.632 3.072-4.096v4.096c-2.56-1.536-1.024 1.536-4.096 1.536z m3.072 12.288c1.536-3.072 1.536-6.144 3.072-5.632 0 2.56-1.536 4.096-3.072 5.632zM547.84 611.84c-3.072 0-4.096-1.536-3.072-4.096h3.072v4.096z m10.752-5.632v-3.072c1.536 0 3.072 1.536 3.072 3.072h-3.072z m226.816-58.88c0-2.56-3.584-3.072-4.096-6.144 1.024 2.56 5.12 3.584 4.096 6.144z m23.04-1.024c-3.072 1.536-4.096 0-3.072-3.072h3.072v3.072zM241.664 492.544V491.52v1.024z m0.512-1.024c-0.512 0-0.512 0.512 0 0z m501.76-135.68c1.024-0.512 2.048-0.512 2.56-1.024-1.024 0-2.048 0.512-2.56 1.024zM236.032 491.008c1.024-1.024-1.536-2.56-1.024-3.584-1.024 0.512-1.536 0.512-3.072 1.024l5.632-3.072c-10.752 4.608-27.136 4.608-36.352 10.752-1.536 0-1.536-1.536-3.072-1.536-1.536 1.536 0 3.072-1.536 3.072-3.072-4.096-9.216 0-10.752 3.072-1.024 1.536 3.072-1.536 3.072 1.536v3.072h-3.072c1.536-4.096-3.072-2.56-1.536-5.632-6.144 2.56-12.288 0-12.288 5.632 0-1.536 0-4.608-3.072-3.072 0 2.56-2.56 2.56-4.096 4.096-4.096-4.096-7.68 1.536-13.312 0-1.024 1.024-1.024 2.56-1.024 2.56 2.048 0.512 2.56 1.536 5.12 1.536v3.072c4.608 1.024 0-3.072 3.072-3.072v4.096c2.56 0.512 3.584 0.512 4.608-0.512-2.56-1.024-2.56-2.56-2.56-4.096 2.56 0 3.584 1.024 4.096 2.56 1.024-1.024 2.56-2.56 4.096-2.56 0 1.536 1.536 6.144 1.536 3.072 1.536-1.024 0-4.096 1.536-4.096 3.072 0 1.536 2.56 1.536 4.096 4.096-1.536 9.216-3.072 14.848-3.072 1.536-1.024 1.536-2.56 3.072-4.096 1.536 0 0 3.072 3.072 3.072 2.56-1.536 2.56-4.096 4.096-7.68 0.512 0.512 1.024 1.024 1.536 1.024-1.536 1.024-1.536 1.024-1.536 4.096 2.56-1.536 9.216-1.536 13.312-3.072 1.536-1.536-3.072-3.072 0-3.072 5.632 4.096 8.192-2.048 15.872-6.144l3.584-1.024c-0.512 0-1.024 0-1.024-0.512v-2.56h2.048v2.56c1.024 0 1.024-0.512 2.048-0.512 0.512 0 0.512-1.024 1.536-1.024z m-60.928 15.36c1.536 0.512 2.56 1.536 2.56 4.096-2.048 0-1.536-3.584-2.56-4.096z m10.24 4.096c-2.56 0-2.56-1.536-3.072-3.072h3.072v3.072z m7.68-11.776c2.56-1.024 4.608 1.024 7.168 3.072-4.096 0-5.632 0-7.168-3.072z m13.312 6.144c-1.536 0-5.632 1.024-4.096-1.536 1.024 0 6.144-1.536 4.096 1.536z m22.016-11.776c-0.512 0.512-0.512 0-1.024-0.512 1.024 0 1.024 0 1.024 0.512 0-0.512 0-0.512 0 0z m3.584-3.072H230.4c-1.024 0.512-1.536 0.512-2.56 1.024 1.024-1.536 1.024-3.584 4.096-3.584v2.56z m271.36-72.192c1.024 0 1.536-0.512 2.56-0.512v-1.024c-1.536 0.512-2.048 1.024-2.56 1.536z" fill="#d81e06" p-id="1999"></path><path d="M833.536 339.968h1.024c0-0.512 0-1.024-0.512-1.536 0 0.512 0 1.024-0.512 1.536z m1.536-7.68c-3.072 0 0-1.536-1.536-3.072-4.096-1.536-4.096 3.072-7.68 3.072 0 1.024 1.024 2.048 1.024 2.56 6.656-1.536 7.68-2.56 8.192-2.56z m-3.072 4.096c1.024 0.512 1.536 1.024 2.048 2.048v-2.56c-1.024-0.512-2.048-0.512-2.048 0.512z m4.608-7.68c-2.56 0-1.024 2.56-1.024 3.072 0.512-0.512 1.024-1.024 3.072-1.024l-2.048-2.048z m-594.944 163.84s-0.512 0 0 0c-0.512 0.512-0.512 0.512-1.024 0.512l-0.512-0.512c-2.048 0-3.584 0.512-5.12 1.024l1.536 4.608c0.512-1.024 1.024-1.536 2.048-2.56 2.048 0 3.072-0.512 4.096-1.024l-2.048-1.024c0.512-0.512 0.512-1.024 1.024-1.024z m251.904-71.168l-1.024-0.512c0.512 0.512 0.512 0.512 1.024 0.512z m0.512 0c2.048-0.512 4.096-1.024 5.12-2.56l-5.12 1.024c0.512 1.024 0 1.536 0 1.536z" fill="#d81e06" p-id="2000"></path><path d="M365.568 453.632c-13.312 3.072-27.136 9.216-41.984 10.752-10.752 3.072-22.528 5.632-32.768 9.216-1.536 1.536 0 3.072-1.536 3.072-14.848-1.536-27.136 7.68-41.984 9.216-1.536 2.56 1.536 1.024 1.536 4.096-1.024 0-5.632 1.024-4.096-3.072-11.264 1.024-4.096-1.024-7.68 0.512 2.048 2.56 3.072 4.096 4.096 5.632H240.64V491.52h1.024c0-1.024 0.512-2.048 1.536-3.072 0.512 0.512 0 1.536-1.024 3.072h1.536c0 1.024-0.512 2.56-1.024 3.072 1.024 0.512 2.048 0.512 4.096 0 0-1.536-1.536-1.536-1.536-3.072 4.096-1.024 1.536 4.608 5.632 3.072 1.536-2.56-1.536-1.024-1.536-4.096 6.144 4.096 16.384 2.56 19.456-3.072 3.072 4.096 7.68-1.536 12.288 0 1.536-2.56-3.072-1.024-1.536-4.096h4.096c0 1.536 0 3.072 1.536 3.072 5.632-1.024 10.752-4.096 17.92-4.096 57.344-16.384 116.224-31.232 174.592-46.08-0.512-1.024-0.512-1.024 0-1.024H476.16v-5.632c-2.048 0-2.56-1.024-3.072-1.536-3.584 1.024-7.68 2.56-11.776 2.56-29.696 6.656-62.976 15.872-95.744 23.04z m-76.288 27.136c0-1.536 1.536-1.536 1.536-3.072 3.072-1.024 1.536 4.608-1.536 3.072z m182.784-56.32c0.512 0.512 1.024 1.024 1.024 1.536 1.024-0.512 2.56-1.024 4.096-1.024-0.512-1.024-1.024-2.56-1.024-3.584-2.56-2.048-2.56 1.536-4.096 3.072z m27.136-5.12c0.512 0 1.024 0 1.024-0.512v-0.512c-0.512 0-1.024 0.512-1.024 1.024z m1.536-1.024c0.512 0 0.512 0 0 0z m333.312-82.944c1.024 0 2.56 1.024 2.56 1.024 1.024-1.024 1.024-2.56 1.024-3.072h-2.56c-0.512 0.512-1.024 1.536-1.024 2.048zM487.424 421.888c-1.536 1.536 0 3.072-1.536 3.072-3.072-1.024-5.632-1.024-8.192-0.512 1.024 2.56 2.56 4.096 3.584 5.632 0-1.024-3.072-2.56 0-4.096 1.536 4.096 5.632 2.56 7.68 5.632 1.536-1.536 2.56-1.536 5.632-1.536v-3.072c-2.56-1.536-4.096 4.608-5.632 1.536 1.024-1.536 4.096-2.56 4.096-5.632 1.536 0 2.56 1.024 3.072 1.536-0.512-1.024-1.024-2.56-2.56-2.56-1.024 0.512-1.536 1.024-2.048 1.024 1.024-2.56-2.56-1.024-4.096-1.024zM725.504 358.4v1.024c1.024 0 2.048-0.512 3.072-0.512-1.024-0.512-2.56-0.512-3.072-0.512z m-225.28 67.584c-2.048 0.512-3.072 0-3.584-0.512 1.024 2.048 2.048 4.096 3.584 4.608v-4.096z" fill="#d81e06" p-id="2001"></path><path d="M497.152 422.912c2.56 0 2.56-2.56 4.096-4.096-0.512 0-1.024 0-1.024 0.512-0.512 2.048-1.536 2.048-3.072 3.584m6.144-5.12c-1.024 0-1.024 0.512-2.048 0.512 1.536 0.512 1.536 0 2.048-0.512m350.208-8.192c0-0.512 0.512-0.512 0 0v-1.536c-0.512-0.512-0.512 0.512 0 1.536M828.928 337.92c0-1.536-1.024-2.56-2.048-3.072-1.024 0.512-2.048 0.512-3.072 1.024-1.536 2.56 4.608 2.56 1.536 4.096-1.536-1.024-4.608-1.024-3.072-4.096-14.848 3.072-27.136 9.216-45.056 10.752l-13.312 4.096c-5.632 1.536-11.776 3.072-17.408 4.096 0.512 0 1.024 0 1.536 0.512v3.072c-4.096-1.536-3.072 3.072-7.68 1.536 1.024-1.536 1.536-3.072 3.072-4.096-5.12 1.024-10.24 2.56-15.36 3.072 0.512 0.512 1.024 1.024 0 2.56-1.024 0-2.56 0-3.072-2.048h-1.024c-1.536 2.56 3.072 1.024 1.536 4.096-2.56 1.024-1.024-3.072-4.096-3.072-73.216 18.432-144.384 38.4-216.064 56.832v2.56h-3.072c4.096 1.536-5.632 5.632 0 9.216 1.536-1.024 0-4.096 1.536-4.096 6.144 1.536 7.68-3.072 10.752 0 1.536-2.56 1.536-1.024 0-4.096h4.096v4.096c1.024-0.512 3.072-1.024 4.608-2.048 0-1.536-4.096 0-4.096-3.072 3.584 1.024 5.632-0.512 5.632-1.024-0.512 1.024-3.072 1.024-1.536 4.096 4.096-1.536 8.704-3.584 11.776-1.024 1.536-1.024 1.536-2.56 3.072-4.096 6.144 5.632 12.288-3.072 20.992-1.536 56.832-17.92 117.248-32.768 175.616-48.128 1.536-4.096 0-5.632-1.536-7.68 1.536 0 1.536-1.536 3.072-1.536v5.632c26.112-4.608 50.688-12.288 75.776-18.944h1.024c6.144-1.536 12.8-3.584 19.456-4.608l0.512-0.512c-3.584 0.512-8.192 1.024-12.8 1.536 3.584-1.536 6.656-2.56 8.704-4.096m-28.16 10.24v-3.072h4.096c0 1.536-2.56 1.536-4.096 3.072m10.24-6.144c0.512 0 1.024 0 1.024 0.512-0.512-0.512-1.536-0.512-1.024-0.512M479.744 431.616c-2.56-1.024-1.024 1.024-2.048 2.048 1.024-0.512 3.072 0.512 2.048-2.048M236.032 486.912c-0.512 0.512-1.024 0.512-1.024 1.024l1.024-1.024c0.512 0 0 0 0 0m-87.04 32.768c0-4.096-1.024-7.68 1.024-10.752-1.024-0.512-1.024-1.536-4.096-1.536 0 5.632 1.536 8.704 3.072 12.288m1.024-10.24c0.512 0 0.512 0 0 0 1.024 0 1.024 0 1.024-0.512l-1.024 0.512c0.512-0.512 0.512-0.512 0 0m87.04-11.264c-1.024 1.024-1.024 1.536-1.024 2.048 1.536 0 1.536-0.512 1.024-2.048" fill="#d81e06" p-id="2002"></path><path d="M289.792 541.184l11.264-3.072 4.608 17.92 77.824-19.968-8.704-33.28-93.696 24.064-2.56-9.728 104.448-27.136 15.872 60.416-10.752 3.072-2.048-7.68-77.824 19.968 9.728 37.888c2.048 8.192 6.656 10.752 14.336 9.216l64-16.384c7.68-2.048 11.264-5.632 11.264-11.776 0-5.632-0.512-12.8-2.048-22.016 3.584 0.512 7.68 1.024 12.288 1.024 1.024 9.216 1.536 16.896 1.536 22.528 0 10.24-6.144 17.408-17.92 20.48L332.288 624.64c-13.312 3.584-21.504-1.536-25.088-15.36l-17.408-68.096zM443.904 482.304l55.808-14.336c-2.56-3.072-5.632-6.656-9.728-10.752l8.704-7.168c5.12 5.632 9.216 10.752 12.8 14.848l51.712-13.312 6.144 24.064-10.752 2.56-3.584-14.848-98.304 25.6 3.584 14.848-10.752 2.56-5.632-24.064z m12.8 53.76l122.368-31.744 2.56 9.216-41.984 10.752 7.168 27.648c1.536 5.632 5.12 7.68 10.752 6.144l13.824-3.584c6.144-1.536 8.704-4.608 8.192-8.704-0.512-4.096-1.536-9.728-3.072-17.408 3.584 0.512 7.68 0.512 12.288 1.024 1.024 7.168 2.048 13.312 2.048 17.92 0.512 7.68-3.584 12.8-12.8 15.36l-20.992 5.632c-10.752 2.56-17.92-1.536-20.48-12.288l-7.68-29.184-23.552 6.144c6.144 24.576-4.096 44.544-30.208 59.904-2.56-2.56-5.632-5.12-9.216-7.68 24.064-12.8 33.792-29.184 29.184-49.152l-35.84 9.216-2.56-9.216z m9.216-30.72l91.648-23.552 2.56 9.216-91.648 23.552-2.56-9.216zM639.488 497.664c11.264-4.608 20.48-8.704 27.648-11.776 0.512 3.584 1.024 6.656 1.536 10.24-9.216 4.096-22.016 9.216-37.888 16.384l-4.608-9.216c4.096-7.168 8.192-17.92 12.8-32.768-7.168 2.56-13.824 4.608-19.456 6.656l-4.608-8.192c5.12-12.8 9.728-30.208 12.8-52.736l10.752 1.536c-4.608 20.992-8.704 36.352-12.288 47.616l15.36-4.608c1.536-5.632 3.072-12.288 5.12-18.944l10.752 2.56c-5.632 18.944-11.776 36.864-17.92 53.248z m-9.216 35.328c15.36-7.168 30.208-14.848 44.032-22.528 0.512 3.584 1.536 6.656 2.048 9.728-13.312 6.656-27.136 13.824-40.96 21.504l-5.12-8.704z m35.328-71.68l31.744-8.192-5.12-20.48-35.84 9.216-2.56-9.216 35.84-9.216-5.12-20.992 10.24-2.56 5.12 20.992 36.352-9.216 2.56 9.216-36.352 9.216 5.12 20.48 31.744-8.192 2.56 9.216-73.728 19.456-2.56-9.728z m9.216 24.064l68.608-17.92 13.824 52.736-10.24 2.56-2.048-8.192-48.64 12.8 2.048 8.192-10.24 2.56-13.312-52.736z m60.928-6.144l-48.128 12.288 6.656 26.624 48.128-12.288-6.656-26.624z" fill="#d81e06" p-id="2003" class=""></path></svg>