<?xml version="1.0" standalone="no"?><!DOCTYPE svg PUBLIC "-//W3C//DTD SVG 1.1//EN" "http://www.w3.org/Graphics/SVG/1.1/DTD/svg11.dtd"><svg t="1494212535696" class="icon" style="" viewBox="0 0 1024 1024" version="1.1" xmlns="http://www.w3.org/2000/svg" p-id="3598" xmlns:xlink="http://www.w3.org/1999/xlink" width="200" height="200"><defs><style type="text/css"></style></defs><path d="M634.88 258.768c0 0-70.672-5.008-123.376-5.008-52.72 0-123.392 5.008-123.392 5.008-50.752 0-92.304 44.624-92.304 95.36l0 320.576c0 50.768 41.536 92.288 92.304 92.288L634.88 766.992c50.752 0 92.288-41.52 92.288-92.288L727.168 354.128C727.152 303.376 685.632 258.768 634.88 258.768M438.912 285.184l145.152 0c7.088 0 12.88 5.792 12.88 12.864 0 7.104-5.776 12.896-12.88 12.896l-145.152 0c-7.088 0-12.88-5.792-12.88-12.896C426.032 290.976 431.824 285.184 438.912 285.184M392.128 717.344c-23.888 0-43.216-19.36-43.216-43.216 0-23.888 19.328-43.232 43.216-43.232 23.872 0 43.216 19.344 43.216 43.232C435.344 697.984 416 717.344 392.128 717.344M630.864 717.344c-23.872 0-43.216-19.36-43.216-43.216 0-23.888 19.344-43.232 43.216-43.232 23.856 0 43.216 19.344 43.216 43.232C674.08 697.984 654.72 717.344 630.864 717.344M690.544 505.072c0 20.32-16.608 36.928-36.928 36.928L369.344 542c-20.304 0-36.912-16.608-36.912-36.928L332.432 387.2c0-20.32 16.608-36.928 36.912-36.928l284.272 0c20.32 0 36.928 16.608 36.928 36.928L690.544 505.072z" p-id="3599" fill="#e2544f"></path><path d="M757.664 940.336 644.4 793.392 596.944 793.392 629.184 835.184 391.344 835.184 423.584 793.392 376.096 793.392 262.848 940.336 310.32 940.336 367.984 865.536 367.984 866.864 377.2 866.864 643.328 866.864 652.544 866.864 652.544 865.536 710.208 940.336Z" p-id="3600" fill="#e2544f"></path><path d="M153.392 956.48 153.392 348c0-117.888 95.92-213.792 213.808-213.792l284.624 0c117.872 0 213.808 95.904 213.808 213.792L865.632 956.48l56.992 40.384L922.624 348c0-149.312-121.504-270.784-270.8-270.784L367.2 77.216c-149.296 0-270.784 121.472-270.784 270.784l0 648.88L153.392 956.48z" p-id="3601" fill="#e2544f"></path></svg>